<svg xmlns="http://www.w3.org/2000/svg" width="160" height="135.291" viewBox="0 0 160 135.291">
  <g id="Group_4" data-name="Group 4" transform="translate(-149 26)">
    <rect id="Rectangle_25" data-name="Rectangle 25" width="160" height="135" transform="translate(149 -26)" fill="none"/>
    <path id="_028-connection" data-name="028-connection" d="M77.371,63.452a46.723,46.723,0,0,1,33.107,13.732L99.44,88.222a31.172,31.172,0,0,0-44.138,0L44.263,77.184A46.7,46.7,0,0,1,77.371,63.452Zm-55.2-8.361a78.063,78.063,0,0,1,110.4,0L121.532,66.13a62.458,62.458,0,0,0-88.323,0L22.171,55.091Zm97.745-45.5a109.027,109.027,0,0,1,34.739,23.42h0L143.617,44.053a93.668,93.668,0,0,0-132.477,0L.1,33.015a109.392,109.392,0,0,1,119.83-23.42Zm-50.352,92.89a7.807,7.807,0,1,1,7.807,7.807A7.809,7.809,0,0,1,69.564,102.485Z" transform="translate(151.898 -1)" fill="#1a1a1a"/>
  </g>
</svg>
