<svg xmlns="http://www.w3.org/2000/svg" width="160" height="135" viewBox="0 0 160 135">
  <g id="Group_5" data-name="Group 5" transform="translate(-148 15)">
    <rect id="Rectangle_24" data-name="Rectangle 24" width="160" height="135" transform="translate(148 -15)" fill="none"/>
    <path id="_018-music" data-name="018-music" d="M114.2,0h7.614V86.091c0,10.338-11.93,18.715-26.648,18.715S68.522,96.429,68.522,86.091,80.453,67.375,95.17,67.375A32.9,32.9,0,0,1,114.2,73V29.945L53.3,43.255v57.808c0,10.338-11.931,18.715-26.648,18.715S0,111.4,0,101.063,11.931,82.348,26.648,82.348A32.9,32.9,0,0,1,45.682,87.97v-73Z" transform="translate(167)" fill="#1a1a1a"/>
  </g>
</svg>
